<?xml version="1.0" encoding="UTF-8" standalone="no"?>
<svg
   xmlns:dc="http://purl.org/dc/elements/1.1/"
   xmlns:cc="http://creativecommons.org/ns#"
   xmlns:rdf="http://www.w3.org/1999/02/22-rdf-syntax-ns#"
   xmlns:svg="http://www.w3.org/2000/svg"
   xmlns="http://www.w3.org/2000/svg"
   xmlns:sodipodi="http://sodipodi.sourceforge.net/DTD/sodipodi-0.dtd"
   xmlns:inkscape="http://www.inkscape.org/namespaces/inkscape"
   inkscape:version="1.0 (4035a4fb49, 2020-05-01)"
   sodipodi:docname="logo.svg"
   viewBox="0, 0, 400,400"
   height="400"
   width="400"
   version="1.1"
   id="svg">
  <metadata
     id="metadata13">
    <rdf:RDF>
      <cc:Work
         rdf:about="">
        <dc:format>image/svg+xml</dc:format>
        <dc:type
           rdf:resource="http://purl.org/dc/dcmitype/StillImage" />
      </cc:Work>
    </rdf:RDF>
  </metadata>
  <defs
     id="defs11" />
  <sodipodi:namedview
     inkscape:current-layer="svg"
     inkscape:window-maximized="1"
     inkscape:window-y="-9"
     inkscape:window-x="-9"
     inkscape:cy="276.74958"
     inkscape:cx="-16.273687"
     inkscape:zoom="0.91875"
     showgrid="false"
     id="namedview9"
     inkscape:window-height="1001"
     inkscape:window-width="1920"
     inkscape:pageshadow="2"
     inkscape:pageopacity="0"
     guidetolerance="10"
     gridtolerance="10"
     objecttolerance="10"
     borderopacity="1"
     bordercolor="#666666"
     pagecolor="#ffffff" />
  <g
     style="fill:#ffffff"
     transform="translate(-430.22878,0.46072)"
     id="svgg">
    <path
       style="fill:#ffffff"
       fill-rule="evenodd"
       fill="#050505"
       stroke="none"
       d="m 592.33214,4.2382801 c -0.018,0.275 -0.668,1.384 -1.445,2.466 -9.336,12.9939999 -22.343,39.0249999 -26.047,52.1229999 -0.297,1.052 -0.82,2.857 -1.162,4.012 -1.316,4.439 -3.733,14.404 -4.158,17.147 -0.245,1.579 -0.54,3.023 -0.655,3.209 -0.357,0.578 -1.624,10.257 -2.583,19.744 -0.691,6.825 -0.911,23.992 -0.411,32 0.799,12.803 1.44,18.695 3.398,31.2 1.336,8.536 0.208,13.497 -2.294,10.084 -1.614,-2.203 -3.141,-9.523 -4.89,-23.45 -0.315,-2.511 -0.659,-4.851 -0.764,-5.2 -0.105,-0.349 -0.482,-2.884 -0.837,-5.634 -0.599,-4.633 -0.949,-7.656 -2.174,-18.8 -0.253,-2.31 -0.631,-5.64 -0.839,-7.4 -0.208,-1.76 -0.561,-5.63 -0.785,-8.6 -0.224,-2.97 -0.447,-5.76 -0.496,-6.2 -0.065,-0.574 -1.016,0.441 -3.372,3.598 -12.973,17.379 -16.018,39.933 -9.452,70.002 3.054,13.986 4.731,19.595 12.494,41.8 2.037,5.825 2.413,8.167 1.639,10.202 -1.49,3.921 -4.719,-2.783 -10.211,-21.202 -0.955,-3.2 -2.592,-8.478 -4.965,-16 -4.189,-13.277 -8.823,-30.494 -8.823,-32.778 0,-2.13 -0.785,-0.484 -2.807,5.885 -1.135,3.571 -2.22,6.943 -2.412,7.493 -0.193,0.55 -0.813,2.98 -1.378,5.4 -0.565,2.42 -1.117,4.76 -1.227,5.2 -4.591,18.475 -1.246,39.946 10.126,65 3.846,8.472 5.395,11.81 7.952,17.138 1.62,3.377 2.946,6.204 2.946,6.283 0,0.079 0.535,1.051 1.188,2.159 3.071,5.208 2.886,9.628 -0.31,7.39 -1.968,-1.379 -8.756,-13.771 -14.99,-27.37 -0.555,-1.21 -1.721,-3.73 -2.592,-5.6 -0.871,-1.87 -2.438,-5.38 -3.484,-7.8 -1.046,-2.42 -2.321,-5.3 -2.833,-6.4 -0.513,-1.1 -1.116,-2.45 -1.341,-3 -3.457,-8.463 -3.445,-8.452 -4.573,-4.2 -10.205,38.459 -1.852,66.147 26.335,87.298 7.744,5.812 9.833,8.9 7.469,11.04 -1.668,1.509 -3.756,0.574 -8.256,-3.699 -1.767,-1.678 -5.373,-4.785 -8.013,-6.904 -4.902,-3.936 -10.2,-9.088 -10.2,-9.92 0,-1.191 -1.108,0.514 -3.268,5.03 -13.842,28.936 -4.592,53.484 27.076,71.862 5.229,3.034 18.558,9.085 20.035,9.095 0.196,0.002 0.807,0.237 1.357,0.523 1.049,0.546 4.158,1.623 7.2,2.494 0.99,0.284 3.15,0.913 4.8,1.399 6.858,2.017 20.381,4.862 25.6,5.385 1.43,0.143 3.231,0.421 4.002,0.618 6.462,1.647 31.026,2.317 42.462,1.159 3.006,-0.305 5.372,-0.308 8.024,-0.013 9.954,1.11 39.305,0.397 41.582,-1.01 0.174,-0.108 2.344,-0.446 4.823,-0.753 26.771,-3.312 55.787,-14.428 71.907,-27.547 22.005,-17.909 26.328,-40.124 12.876,-66.166 l -1.296,-2.508 -1.942,2.308 c -2.426,2.884 -3.389,3.764 -9.838,8.994 -2.86,2.319 -6.363,5.345 -7.785,6.723 -4.096,3.972 -6.616,4.71 -7.862,2.302 -1.065,-2.06 0.788,-5.073 5.047,-8.205 15.043,-11.063 26.047,-24.667 29.526,-36.505 1.678,-5.707 2.236,-7.887 2.917,-11.4 1.808,-9.329 1.242,-22.864 -1.431,-34.204 -2.946,-12.499 -2.588,-12.145 -5.449,-5.396 -1.305,3.08 -2.755,6.41 -3.221,7.4 -0.467,0.99 -1.81,4.001 -2.985,6.69 -1.175,2.69 -3.022,6.74 -4.104,9 -1.082,2.261 -2.721,5.73 -3.643,7.71 -7.223,15.519 -11.506,22.371 -13.81,22.096 -1.799,-0.215 -1.056,-3.137 2.776,-10.918 1.944,-3.948 4.158,-8.528 4.92,-10.178 4.598,-9.958 5.728,-12.463 6.68,-14.8 0.583,-1.43 1.225,-2.96 1.427,-3.4 1.396,-3.039 4.037,-10.637 6.566,-18.89 4.199,-13.7 4.075,-30.033 -0.354,-46.61 -0.338,-1.265 -0.863,-3.245 -1.166,-4.4 -1.905,-7.254 -5.049,-15.624 -5.049,-13.44 0,0.561 -0.161,1.542 -0.358,2.18 -0.197,0.638 -0.758,2.87 -1.248,4.96 -1.189,5.079 -4.003,15.205 -5.391,19.4 -0.292,0.88 -1.014,3.22 -1.607,5.2 -1.257,4.203 -3.3,10.763 -3.798,12.2 -0.191,0.55 -0.831,2.62 -1.422,4.6 -5.844,19.59 -8.484,25.059 -10.353,21.445 -0.957,-1.852 -0.77,-3.252 1.146,-8.551 5.681,-15.71 9.445,-27.674 12.049,-38.294 1.057,-4.31 2.205,-10.662 3.399,-18.8 3.295,-22.468 -1.532,-43.42 -13.417,-58.233 l -1.632,-2.034 -0.727,7.834 c -0.401,4.308 -0.899,9.183 -1.107,10.833 -0.209,1.65 -0.63,5.43 -0.935,8.4 -0.512,4.972 -1.364,11.606 -2.8,21.8 -0.31,2.2 -0.84,5.98 -1.177,8.4 -2.269,16.279 -4.509,22.493 -6.622,18.37 -0.76,-1.482 -0.72,-4.736 0.124,-10.17 2.298,-14.789 3.045,-22.641 3.733,-39.2 0.248,-5.978 -0.743,-26.786 -1.458,-30.6 -0.206,-1.1 -0.574,-3.884 -0.817,-6.186 -0.242,-2.302 -0.526,-4.323 -0.629,-4.49 -0.104,-0.168 -0.446,-1.794 -0.761,-3.614 -1.731,-10.009 -5.009,-22.128 -8.198,-30.31 -0.472,-1.21 -1.022,-2.751 -1.224,-3.425 -0.201,-0.674 -0.907,-2.342 -1.568,-3.707 -0.661,-1.364 -1.202,-2.587 -1.202,-2.717 0,-2.07 -13.91,-26.992 -19.731,-35.3509999 l -1.532,-2.2 0.288,1.6 c 0.158,0.88 0.462,2.05 0.675,2.6 0.214,0.55 0.624,1.8999999 0.913,2.9999999 0.288,1.1 0.904,3.44 1.369,5.2 0.465,1.76 1.104,4.37 1.42,5.8 0.315,1.43 0.946,4.22 1.403,6.2 1.404,6.094 3.202,15.838 4.762,25.8 0.258,1.65 0.727,4.53 1.042,6.4 0.644,3.816 1.243,7.949 1.797,12.4 0.417,3.346 1.375,10.825 2.204,17.2 0.3,2.31 0.655,5.64 0.79,7.4 0.135,1.76 0.416,4.46 0.625,6 0.56,4.112 2.271,24.742 3.169,38.2 0.228,3.41 0.587,8.63 0.8,11.6 0.212,2.97 0.568,10.26 0.791,16.2 0.222,5.94 0.615,14.76 0.872,19.6 1.158,21.814 0.405,66.059 -1.307,76.8 -0.485,3.041 -0.659,2.415 2.66,9.6 2.256,4.884 6.448,17.623 7.898,24 1.803,7.931 1.882,8.366 3.143,17.4 0.505,3.616 0.243,19.443 -0.365,22 -0.235,0.99 -0.735,3.15 -1.111,4.8 -6.981,30.655 -33.804,47.65 -80.575,51.053 -11.948,0.869 -30.817,-0.447 -40.69,-2.837 -4.3,-1.042 -8.518,-2.099 -11.05,-2.772 -2.697,-0.716 -8.791,-2.898 -10.26,-3.674 -0.55,-0.29 -2.98,-1.505 -5.4,-2.699 -16.866,-8.323 -27.218,-21.512 -31.693,-40.378 -2.052,-8.647 -1.493,-28.367 1.095,-38.693 0.193,-0.77 0.655,-2.75 1.025,-4.4 0.861,-3.832 3.604,-13.016 4.379,-14.66 0.327,-0.694 0.594,-1.394 0.594,-1.557 0,-0.163 0.642,-1.936 1.427,-3.94 1.34,-3.419 1.769,-4.427 3.594,-8.443 0.836,-1.837 0.834,-2.637 -0.015,-9.2 -1.385,-10.712 -1.673,-49.649 -0.571,-77.2 0.606,-15.136 1.477,-32.658 1.95,-39.2 1.523,-21.086 3.057,-39.129 3.996,-47 0.223,-1.87 0.587,-5.02 0.81,-7 0.832,-7.405 2.293,-18.896 2.874,-22.6 0.577,-3.676 1.394,-9.101 2.11,-14 0.337,-2.31 0.787,-5.01 0.998,-6 0.211,-0.99 0.771,-4.05 1.243,-6.8 0.901,-5.25 2.171,-11.632 2.784,-14 0.199,-0.77 0.739,-3.11 1.2,-5.2 1.164,-5.277 1.924,-8.148 4,-15.0999999 0.477,-1.595 0.776,-3.125 0.665,-3.4 -0.161,-0.399 -0.208,-0.399 -0.233,-0.001 m 45.768,121.0779999 c -27.726,3.622 -43.803,26.382 -37.877,53.623 1.692,7.778 9.404,16.054 19.445,20.868 1.557,0.747 3.182,1.556 3.611,1.797 0.833,0.471 7.631,2.976 9.621,3.546 0.66,0.189 2.1,0.635 3.2,0.991 1.1,0.356 2.99,0.928 4.2,1.271 1.21,0.344 2.791,0.872 3.514,1.176 0.722,0.303 1.532,0.548 1.8,0.545 0.514,-0.006 5.124,1.353 7.486,2.207 0.77,0.279 3.02,1.002 5,1.607 3.271,1 7.878,2.855 9.4,3.784 0.33,0.202 1.32,0.756 2.2,1.233 5.271,2.853 11.094,9.194 13.414,14.608 4.702,10.97 0.858,27.914 -8.175,36.036 -7.621,6.852 -14.585,9.033 -28.839,9.031 -17.445,-0.002 -28.783,-4.617 -36.119,-14.7 -0.8,-1.1 -1.551,-2.09 -1.669,-2.2 -0.399,-0.372 -2.412,-3.441 -2.412,-3.677 0,-0.129 -0.692,-1.419 -1.538,-2.866 -2.358,-4.036 -4.494,-9.848 -6.782,-18.457 -0.606,-2.282 -0.905,-2.824 -1.612,-2.928 l -0.868,-0.128 v 22.228 22.228 h 1.41 c 1.093,0 1.488,-0.202 1.756,-0.9 1.324,-3.447 6.551,-4.539 12.434,-2.597 1.521,0.502 4.273,1.367 12.6,3.961 11.608,3.616 33.917,3.282 44.8,-0.671 28.507,-10.355 42.063,-44.557 26.362,-66.509 -6.166,-8.621 -12.807,-12.264 -34.762,-19.072 -2.64,-0.818 -6.6,-2.072 -8.8,-2.787 -2.2,-0.714 -5.62,-1.796 -7.6,-2.405 -4.425,-1.36 -6.019,-1.895 -9.6,-3.222 -1.54,-0.571 -3.25,-1.193 -3.8,-1.382 -14.447,-4.972 -22.099,-17.235 -19.624,-31.448 0.736,-4.222 6.286,-13.768 8.006,-13.768 0.17,0 0.919,-0.542 1.664,-1.204 7.245,-6.439 25.431,-9.742 35.154,-6.384 3.715,1.283 5.853,2.151 6.4,2.598 0.33,0.27 1.572,1.039 2.761,1.709 7.827,4.414 15.945,16.33 18.461,27.097 1.165,4.987 1.424,5.584 2.426,5.584 h 0.952 l 0.111,-17.6 c 0.061,-9.68 0.013,-18.005 -0.108,-18.5 -0.4,-1.648 -2.189,-1.189 -3.804,0.976 -2.468,3.311 -5.726,3.298 -13.599,-0.055 -11.926,-5.078 -20.552,-6.556 -30.6,-5.244"
       id="path0" />
    <path
       style="fill:#ffffff"
       fill-rule="evenodd"
       fill="#fbfbfb"
       stroke="none"
       d="M 0,200 V 400 H 200 400 V 200 0 H 200 0 V 200 M 144.574,2.829 c -0.34,1.194 -0.868,3.071 -1.173,4.171 -0.306,1.1 -0.939,3.35 -1.407,5 -0.863,3.042 -1.199,4.394 -2.782,11.2 -2.062,8.864 -2.532,11.219 -3.791,19 -0.357,2.2 -0.808,4.63 -1.003,5.4 -0.195,0.77 -0.468,2.39 -0.607,3.6 -0.139,1.21 -0.423,3.01 -0.632,4 -0.58,2.751 -2.505,16.335 -3.372,23.8 -0.307,2.64 -0.665,5.34 -0.795,6 -0.259,1.31 -1.205,10.227 -1.826,17.2 -0.215,2.42 -0.561,5.57 -0.768,7 -0.208,1.43 -0.485,4.49 -0.616,6.8 -0.131,2.31 -0.421,6.09 -0.645,8.4 -0.563,5.797 -1.485,19.095 -1.956,28.2 -0.216,4.18 -0.581,10.39 -0.81,13.8 -0.408,6.065 -0.93,22.662 -1.448,46.093 -0.376,16.947 0.594,43.963 1.869,52.043 l 0.431,2.736 -2.165,5.064 c -2.544,5.951 -4.286,10.459 -5.433,14.064 -0.455,1.43 -1.173,3.68 -1.596,5 -0.422,1.32 -1.065,3.75 -1.428,5.4 -0.362,1.65 -0.821,3.54 -1.019,4.2 -0.944,3.147 -2.468,13.649 -3.048,21 -0.513,6.512 1.255,19.074 3.716,26.4 6.164,18.344 23.007,32.952 44.93,38.968 1.43,0.392 3.41,0.945 4.4,1.228 0.99,0.283 2.52,0.632 3.4,0.776 0.88,0.143 2.05,0.431 2.6,0.639 2.477,0.939 14.913,2.451 26.033,3.166 7.224,0.465 23.242,-0.403 28.967,-1.57 1.1,-0.224 3.62,-0.691 5.6,-1.037 8.302,-1.452 15.432,-3.269 18.86,-4.805 0.694,-0.311 1.436,-0.565 1.651,-0.565 0.214,0 1.392,-0.444 2.618,-0.986 22.652,-10.018 33.837,-23.222 38.354,-45.283 1.156,-5.648 1.292,-21.378 0.232,-26.931 -0.356,-1.87 -0.765,-4.3 -0.907,-5.4 -0.143,-1.1 -0.42,-2.54 -0.617,-3.2 -0.197,-0.66 -0.732,-2.91 -1.189,-5 -0.927,-4.242 -2.003,-8.023 -3.473,-12.2 -0.542,-1.54 -1.158,-3.376 -1.37,-4.08 -0.212,-0.704 -0.648,-1.784 -0.97,-2.4 -0.321,-0.616 -0.585,-1.319 -0.587,-1.562 -0.001,-0.243 -1.005,-2.734 -2.231,-5.536 l -2.229,-5.094 0.461,-4.464 c 0.254,-2.455 0.639,-5.634 0.855,-7.064 0.607,-4.018 0.876,-48.802 0.385,-64 -0.545,-16.842 -1.542,-39.567 -1.852,-42.2 -0.129,-1.1 -0.498,-6.05 -0.819,-11 -0.917,-14.128 -2.494,-32.865 -3.182,-37.8 -0.123,-0.88 -0.486,-4.21 -0.807,-7.4 -0.321,-3.19 -0.845,-7.87 -1.163,-10.4 -0.319,-2.53 -0.86,-6.94 -1.202,-9.8 -0.342,-2.86 -0.731,-5.65 -0.864,-6.2 -0.133,-0.55 -0.479,-2.62 -0.769,-4.6 -1.309,-8.951 -1.777,-11.913 -2.591,-16.4 -0.478,-2.64 -1.117,-6.24 -1.419,-8 -0.525,-3.052 -1.625,-8.406 -2.794,-13.6 -1.745,-7.746 -2.483,-10.628 -4.754,-18.569 -1.607,-5.618 -1.601,-5.871 0.091,-3.734 5.484,6.924 17.19,27.895 22.496,40.303 0.188,0.44 0.712,1.645 1.164,2.678 0.452,1.033 0.822,2.009 0.822,2.169 0,0.159 0.477,1.474 1.061,2.922 1.376,3.413 3.533,10.378 4.778,15.431 0.543,2.2 1.166,4.568 1.385,5.261 0.22,0.694 0.684,2.764 1.031,4.6 1.869,9.894 1.757,9.189 3.159,19.739 0.862,6.484 1.389,25.725 0.991,36.2 -0.42,11.047 -1.279,19.596 -3.057,30.4 -2.483,15.094 0.966,18.345 3.699,3.486 0.742,-4.037 1.599,-9.805 2.359,-15.886 0.317,-2.53 0.67,-5.05 0.784,-5.6 0.363,-1.739 1.452,-10.009 2.002,-15.2 1.068,-10.081 1.451,-13.464 1.856,-16.4 0.228,-1.65 0.516,-5.655 0.641,-8.9 0.26,-6.747 0.139,-6.573 2.511,-3.597 6.425,8.059 10.612,16.268 12.698,24.897 0.452,1.87 1.048,4.3 1.325,5.4 0.681,2.714 0.971,20.463 0.417,25.6 -0.866,8.034 -2.286,16.435 -3.786,22.4 -0.332,1.32 -0.796,3.167 -1.032,4.104 -0.235,0.937 -0.894,3.277 -1.464,5.2 -0.57,1.923 -1.268,4.306 -1.551,5.296 -0.861,3.018 -3.027,9.751 -3.409,10.6 -0.198,0.44 -0.538,1.43 -0.755,2.2 -0.457,1.625 -1.508,4.644 -2.017,5.8 -3.691,8.373 -4.395,16.747 -1.134,13.486 0.701,-0.701 4.371,-11.137 7.696,-21.886 0.816,-2.64 1.717,-5.52 2.001,-6.4 0.983,-3.044 2.14,-6.812 3.009,-9.8 0.48,-1.65 1.124,-3.72 1.431,-4.6 0.307,-0.88 1.032,-3.22 1.611,-5.2 1.014,-3.468 1.376,-4.791 2.74,-10 0.346,-1.32 0.806,-3.03 1.022,-3.8 1.029,-3.668 1.998,-8.464 1.998,-9.888 0,-2.356 0.443,-2.359 1.214,-0.009 2.013,6.142 4.79,15.048 5.019,16.097 0.143,0.66 0.492,2.01 0.774,3 0.282,0.99 0.795,3.15 1.141,4.8 0.346,1.65 0.945,4.35 1.332,6 1.688,7.207 0.907,25.387 -1.461,34 -1.553,5.645 -3.122,10.726 -4.016,13 -0.173,0.44 -0.992,2.6 -1.82,4.8 -0.827,2.2 -1.949,4.99 -2.493,6.2 -0.544,1.21 -1.575,3.561 -2.291,5.223 -1.849,4.291 -2.905,6.534 -8.24,17.499 -4.457,9.164 -5.543,12.227 -4.649,13.121 1.436,1.436 7.182,-8.118 14.679,-24.407 0.617,-1.34 1.951,-4.208 2.966,-6.373 1.015,-2.165 1.845,-3.994 1.845,-4.063 0,-0.069 0.784,-1.808 1.742,-3.863 1.485,-3.184 2.731,-6.032 7.322,-16.737 1.502,-3.5 1.598,-3.649 2.021,-3.115 0.224,0.283 0.514,0.965 0.644,1.515 0.129,0.55 0.619,2.35 1.088,4 0.468,1.65 1.084,4.08 1.368,5.4 0.284,1.32 0.711,3.21 0.949,4.2 3.296,13.711 1.546,33.413 -4.12,46.369 -5.312,12.146 -15.808,24.412 -27.567,32.217 -3.226,2.141 -5.441,4.841 -5.444,6.634 -0.007,3.804 3.141,3.031 8.397,-2.061 1.65,-1.599 5.07,-4.562 7.6,-6.585 5.057,-4.043 10.4,-9.339 10.4,-10.308 0,-1.237 0.728,-1.025 1.409,0.41 0.384,0.809 1.18,2.292 1.77,3.297 11.447,19.5 8.586,43.582 -7.061,59.427 -5.023,5.086 -16.367,13.8 -17.966,13.8 -0.159,0 -0.573,0.246 -0.921,0.548 -0.67,0.581 -6.64,3.646 -11.631,5.972 -4.365,2.034 -14.179,5.633 -19.8,7.262 -20.834,6.037 -44.456,9.155 -63.674,8.403 -10.995,-0.43 -19.125,-0.43 -30.455,10e-4 -13.606,0.518 -35.671,-1.475 -46.471,-4.196 -0.77,-0.194 -3.2,-0.74 -5.4,-1.212 -3.974,-0.853 -5.245,-1.177 -11,-2.802 -3.266,-0.923 -9.486,-2.976 -11.4,-3.763 -2.761,-1.136 -5.635,-2.213 -5.903,-2.213 C 102.909,384.8 87.6,376.579 82.8,373.257 57.705,355.886 50.383,333.701 61.328,308.2 c 0.755,-1.76 1.839,-4.01 2.409,-5 0.57,-0.99 1.322,-2.429 1.67,-3.199 l 0.635,-1.399 0.641,1.324 c 0.988,2.039 7.524,8.208 13.717,12.945 0.77,0.589 2.892,2.497 4.716,4.241 4.434,4.239 7.218,5.199 7.844,2.704 0.58,-2.311 -0.84,-4.133 -6.798,-8.72 -3.059,-2.355 -6.397,-5.05 -7.418,-5.989 -1.021,-0.939 -2.371,-2.169 -3,-2.734 C 60.441,288.632 51.879,264.011 54.749,242 c 0.9,-6.903 1.307,-9.452 1.853,-11.6 1.928,-7.59 3.25,-11.998 3.598,-11.99 0.22,0.005 2.008,3.74 3.973,8.299 1.965,4.56 4.239,9.731 5.053,11.491 0.814,1.76 2.472,5.36 3.685,8 9.089,19.782 13.573,28.149 16.184,30.203 3.197,2.515 2.385,-0.96 -2.636,-11.281 -2.388,-4.907 -4.713,-9.732 -5.166,-10.722 -2.556,-5.574 -3.394,-7.444 -5.29,-11.8 -2.173,-4.991 -5.715,-14.281 -6.634,-17.4 -0.292,-0.99 -0.903,-3.06 -1.358,-4.6 -0.755,-2.557 -1.524,-5.791 -2.379,-10 -1.699,-8.373 -1.444,-21.208 0.603,-30.4 1.001,-4.493 2.196,-9.503 2.575,-10.8 1.321,-4.512 4.911,-15.724 5.217,-16.295 0.205,-0.382 0.373,-0.997 0.373,-1.366 0,-1.593 0.496,0.03 0.834,2.728 0.58,4.639 2.874,13.515 6.96,26.933 0.803,2.64 2.088,6.87 2.855,9.4 0.767,2.53 1.638,5.32 1.935,6.2 0.297,0.88 1.298,4.03 2.224,7 6.088,19.525 7.581,22.997 9.035,21.008 0.945,-1.292 0.629,-3.893 -1.054,-8.652 -0.885,-2.506 -2.067,-5.906 -2.624,-7.556 -0.558,-1.65 -1.177,-3.36 -1.376,-3.8 -0.199,-0.44 -0.706,-1.88 -1.127,-3.2 -1.195,-3.745 -3.562,-11.431 -4.065,-13.2 -0.25,-0.88 -0.719,-2.5 -1.041,-3.6 -0.322,-1.1 -0.837,-3.17 -1.144,-4.6 -0.306,-1.43 -0.938,-4.31 -1.403,-6.4 -0.465,-2.09 -1.102,-5.307 -1.416,-7.149 -0.314,-1.843 -0.658,-3.643 -0.765,-4 -0.107,-0.358 -0.494,-3.981 -0.86,-8.051 -2.043,-22.72 2.193,-39.314 13.777,-53.972 3.074,-3.889 3.25,-3.83 3.272,1.096 0.018,3.966 0.403,9.091 1.163,15.476 0.235,1.98 0.696,5.94 1.024,8.8 1.838,16.011 4.527,34.967 5.929,41.8 2.151,10.476 5.225,9.082 3.729,-1.692 -3.277,-23.601 -3.663,-28.412 -3.658,-45.508 0.006,-16.211 0.936,-28.742 2.79,-37.6 0.299,-1.43 0.656,-3.32 0.793,-4.2 1.209,-7.789 5.91,-24.347 8.873,-31.26 0.297,-0.694 0.54,-1.476 0.54,-1.739 0,-0.263 0.263,-0.955 0.584,-1.539 0.32,-0.584 0.967,-1.962 1.437,-3.062 3.084,-7.229 9.949,-20.66 12.328,-24.122 0.408,-0.593 2.232,-3.508 4.055,-6.478 1.823,-2.97 3.873,-6.144 4.555,-7.054 0.683,-0.91 1.502,-2.029 1.82,-2.488 0.845,-1.215 0.888,-0.865 0.195,1.571 M 202.6,123.387 c 2.86,0.314 5.74,0.755 6.4,0.98 0.66,0.226 2.598,0.866 4.308,1.423 1.709,0.557 3.419,1.186 3.8,1.398 7.487,4.161 13.943,4.867 16.074,1.756 1.432,-2.089 2.61,-2.767 3.838,-2.208 l 0.988,0.45 -0.104,18.664 c -0.096,17.273 -0.156,18.696 -0.804,19.104 -1.33,0.839 -2.04,-0.19 -3.169,-4.588 -3.437,-13.386 -10.193,-23.594 -18.955,-28.638 -1.46,-0.84 -3.162,-1.831 -3.782,-2.201 -3.987,-2.382 -12.56,-3.551 -20.185,-2.753 -17.719,1.854 -29.713,13.051 -29.809,27.826 -0.049,7.57 5.435,16.906 12.2,20.769 1.1,0.628 2.27,1.349 2.6,1.603 0.54,0.414 2.844,1.482 6.8,3.151 1.73,0.73 10.95,3.79 15.8,5.243 1.98,0.594 3.913,1.249 4.295,1.457 0.382,0.207 0.93,0.377 1.218,0.377 0.287,0 3.215,0.876 6.505,1.947 3.29,1.071 7.422,2.409 9.182,2.972 6.121,1.961 12.314,4.431 13.431,5.357 0.348,0.288 0.745,0.524 0.883,0.524 0.881,0 6.984,4.715 9.684,7.482 2.492,2.554 7.002,10.292 7.002,12.013 0,0.41 0.181,0.926 0.403,1.148 0.977,0.977 1.754,10.816 1.223,15.49 -3.033,26.688 -22.936,44.002 -51.617,44.904 -13.457,0.423 -21.281,-0.693 -34.009,-4.85 -10.265,-3.353 -14.089,-3.346 -16.411,0.03 -1.341,1.948 -3.983,2.617 -4.546,1.15 -0.35,-0.91 -0.288,-43.477 0.063,-44.027 0.586,-0.917 2.894,-0.818 2.894,0.125 0,0.366 0.265,1.581 0.59,2.7 0.324,1.119 1.031,3.565 1.571,5.435 5.037,17.449 15.059,29.483 28.09,33.73 11.626,3.788 30.638,3.053 39.662,-1.534 3.543,-1.801 10.887,-7.972 10.887,-9.148 0,-0.205 0.442,-0.952 0.983,-1.661 6.589,-8.639 7.087,-24.337 1.074,-33.847 -5.601,-8.859 -11.925,-12.267 -36.257,-19.542 -35.487,-10.609 -45.616,-19.717 -45.591,-40.998 0.032,-27.817 22.856,-46.5 52.791,-43.213"
       id="path1" />
  </g>
</svg>
